<?xml version="1.0"?>
<svg width="30" height="30" viewBox="0 0 24 24"  xmlns="http://www.w3.org/2000/svg">
  <path clip-rule="evenodd" d="m7.5,1.25c0.41,0 0.75,0.34 0.75,0.75l0,0.5c0,0.41 -0.34,0.75 -0.75,0.75c-0.41,0 -0.75,-0.34 -0.75,-0.75l0,-0.5c0,-0.41 0.34,-0.75 0.75,-0.75zm-4.42,1.83c0.29,-0.29 0.77,-0.29 1.06,0l0.22,0.22c0.29,0.29 0.29,0.76 0,1.06c-0.3,0.29 -0.77,0.29 -1.06,0l-0.22,-0.22c-0.29,-0.29 -0.29,-0.77 0,-1.06zm8.84,0c0.29,0.29 0.29,0.77 0,1.06l-0.22,0.22c-0.29,0.29 -0.76,0.29 -1.06,0c-0.29,-0.3 -0.29,-0.77 0,-1.06l0.22,-0.22c0.29,-0.29 0.77,-0.29 1.06,0zm-10.67,4.42c0,-0.41 0.34,-0.75 0.75,-0.75l0.5,0c0.41,0 0.75,0.34 0.75,0.75c0,0.41 -0.34,0.75 -0.75,0.75l-0.5,0c-0.41,0 -0.75,-0.34 -0.75,-0.75zm3.11,3.14c0.29,0.3 0.29,0.77 0,1.06l-0.22,0.22c-0.29,0.29 -0.77,0.29 -1.06,0c-0.29,-0.29 -0.29,-0.77 0,-1.06l0.22,-0.22c0.29,-0.29 0.76,-0.29 1.06,0z"  fill-rule="evenodd" id="svg_1"/>
  <path d="m16.29,22c3.15,0 5.71,-2.53 5.71,-5.65c0,-2.47 -1.61,-4.57 -3.84,-5.33c-0.32,-2.83 -2.74,-5.02 -5.68,-5.02c-3.16,0 -5.72,2.53 -5.72,5.65c0,0.69 0.13,1.35 0.36,1.96c-0.27,-0.05 -0.55,-0.08 -0.83,-0.08c-2.37,0 -4.29,1.9 -4.29,4.23c0,2.34 1.92,4.24 4.29,4.24l10,0z"  id="svg_2"/>
  <path d="m9.81,5c-0.53,-0.32 -1.15,-0.5 -1.81,-0.5c-1.93,0 -3.5,1.57 -3.5,3.5c0,0.89 0.33,1.71 0.88,2.33c0.46,-2.44 2.17,-4.43 4.43,-5.33z"  id="svg_3"/>
</svg>